<svg width="50" height="50" viewBox="0 0 50 50" fill="none" xmlns="http://www.w3.org/2000/svg">
<rect width="50" height="50" rx="25" fill="white" fill-opacity="0.1"/>
<path fill-rule="evenodd" clip-rule="evenodd" d="M20.5 13H29.5C33.6415 13 37 16.3585 37 20.5V29.5C37 33.6415 33.6415 37 29.5 37H20.5C16.3585 37 13 33.6415 13 29.5V20.5C13 16.3585 16.3585 13 20.5 13ZM29.5 34.75C32.395 34.75 34.75 32.395 34.75 29.5V20.5C34.75 17.605 32.395 15.25 29.5 15.25H20.5C17.605 15.25 15.25 17.605 15.25 20.5V29.5C15.25 32.395 17.605 34.75 20.5 34.75H29.5Z" fill="#EDAE02"/>
<path fill-rule="evenodd" clip-rule="evenodd" d="M19 25C19 21.6865 21.6865 19 25 19C28.3135 19 31 21.6865 31 25C31 28.3135 28.3135 31 25 31C21.6865 31 19 28.3135 19 25ZM21.25 25C21.25 27.067 22.933 28.75 25 28.75C27.067 28.75 28.75 27.067 28.75 25C28.75 22.9315 27.067 21.25 25 21.25C22.933 21.25 21.25 22.9315 21.25 25Z" fill="#EDAE02"/>
<circle cx="31.4495" cy="18.549" r="0.7995" fill="#EDAE02"/>
</svg>
